<svg xmlns="http://www.w3.org/2000/svg" width="23.75" height="23.75" viewBox="0 0 23.75 23.75"><g transform="translate(-4 -4)"><path d="M27.519,13.549h-.957V13.5H15.875v4.75h6.711a7.131,7.131,0,1,1-1.984-7.7L23.961,7.2a11.863,11.863,0,1,0,3.789,8.679A11.956,11.956,0,0,0,27.519,13.549Z" fill="#f5f5f5"/><path d="M6.306,10.348l3.9,2.861a7.111,7.111,0,0,1,11.331-2.655L24.9,7.2A11.852,11.852,0,0,0,6.306,10.348Z" transform="translate(-0.937)" fill="#f5f5f5"/><path d="M16.767,37.522a11.819,11.819,0,0,0,7.962-3.083l-3.675-3.11a7.107,7.107,0,0,1-10.986-3.275L6.2,31.038A11.866,11.866,0,0,0,16.767,37.522Z" transform="translate(-0.892 -9.772)" fill="#f5f5f5"/><path d="M35.644,20.049h-.957V20H24v4.75h6.711a7.149,7.149,0,0,1-2.427,3.308h0l3.675,3.11a11.487,11.487,0,0,0,3.913-8.792A11.956,11.956,0,0,0,35.644,20.049Z" transform="translate(-8.125 -6.5)" fill="#f5f5f5"/></g></svg>