<svg xmlns="http://www.w3.org/2000/svg" width="16" height="23.923" viewBox="0 0 16 23.923"><path d="M-222.267,349.873a8.492,8.492,0,0,0-2.572-2.058,7.975,7.975,0,0,0,2.109-5.119,5.215,5.215,0,0,0-5.2-5.2,5.215,5.215,0,0,0-5.2,5.2,7.975,7.975,0,0,0,2.109,5.119,8.193,8.193,0,0,0-2.572,2.058,10.33,10.33,0,0,0-2.315,6.662v3.576a1.317,1.317,0,0,0,1.312,1.312h13.376a1.317,1.317,0,0,0,1.312-1.312v-3.576A10.664,10.664,0,0,0-222.267,349.873Zm-1.723,8.54c0,.772,0,1.518.026,2.238h-1.723A13.141,13.141,0,0,0-223.99,358.413Zm.026-1.7a12.512,12.512,0,0,1-2.8,3.936h-2.958a36.761,36.761,0,0,0,3.781-3.293l.309-.309a17.806,17.806,0,0,0,1.7-2.084C-223.964,355.532-223.964,356.124-223.964,356.715Zm-2.212-.232-.309.309a30.821,30.821,0,0,1-4.6,3.858h-1.955l.026-1.183a37.342,37.342,0,0,0,9.389-7.1,8.634,8.634,0,0,0,1.132-1.518l.026.026h-.026A20.573,20.573,0,0,1-226.177,356.484Zm-6.74-.154a24.29,24.29,0,0,0,9.826-6.225l.1.1a7.577,7.577,0,0,1-1.183,1.672,36.455,36.455,0,0,1-8.8,6.714Zm.026-.823.077-2.675A21.082,21.082,0,0,0-224.35,349a6.358,6.358,0,0,1,.695.54A23.282,23.282,0,0,1-232.89,355.506Zm-2.289,4.6v-3.576a9.665,9.665,0,0,1,2.135-6.174,7.553,7.553,0,0,1,2.8-2.084l.592-.232-.463-.386a7.206,7.206,0,0,1-2.264-4.939,4.424,4.424,0,0,1,4.424-4.424,4.424,4.424,0,0,1,4.424,4.424,7.206,7.206,0,0,1-2.264,4.939l-.463.412.592.232a4.188,4.188,0,0,1,.592.283,20.2,20.2,0,0,1-8.051,3.524.623.623,0,0,0-.412.257.539.539,0,0,0-.077.309l-.232,8h-.8A.584.584,0,0,1-235.18,360.111Zm14.457,0a.543.543,0,0,1-.54.54h-1.929c-.026-2.212,0-4.759.051-6.868a16.685,16.685,0,0,0,1.183-2.109,9.964,9.964,0,0,1,1.235,4.862Z" transform="translate(235.9 -337.5)" fill="#2196f3"/></svg>