<svg xmlns="http://www.w3.org/2000/svg" width="255" height="255" viewBox="0 0 255 255">
  <g id="virus" transform="translate(255 -333.732)">
    <rect id="Rectangle_5" data-name="Rectangle 5" width="255" height="255" transform="translate(-255 333.732)" fill="none" />
    <g id="Group_2" data-name="Group 2" transform="translate(-242.4 346.733)">
      <path id="Path_6" data-name="Path 6" d="M-21.072,421.923a12.776,12.776,0,0,0-16.074-8.165,13.217,13.217,0,0,0-8.165,7.91L-77.46,432.129c-.765-1.276-1.276-2.807-2.041-4.082l8.165-6.124a15.731,15.731,0,0,0,15.309-1.531A15.17,15.17,0,0,0-52.71,398.96a15.17,15.17,0,0,0-21.432-3.317,15.254,15.254,0,0,0-6.123,14.033l-8.165,6.124a40.652,40.652,0,0,0-3.317-3.317L-77.97,393.6a13.32,13.32,0,0,0,10.206-5.1,12.941,12.941,0,0,0-2.807-17.86,12.94,12.94,0,0,0-17.86,2.807,12.615,12.615,0,0,0-1.786,11.226l-13.778,18.881a62.07,62.07,0,0,0-23.473-7.654V361.963a12.93,12.93,0,0,0,5.1-10.206A12.633,12.633,0,0,0-135.122,339a12.633,12.633,0,0,0-12.757,12.757,13.32,13.32,0,0,0,5.1,10.206v33.679l-4.593.765-3.062-9.7a15.321,15.321,0,0,0,3.062-15.054,15.565,15.565,0,0,0-19.391-9.951,15.565,15.565,0,0,0-9.951,19.391,15.519,15.519,0,0,0,11.482,10.206l3.062,9.7c-1.531.765-2.807,1.276-4.082,2.041l-13.778-18.881a12.616,12.616,0,0,0-1.786-11.227,12.94,12.94,0,0,0-17.86-2.807,12.941,12.941,0,0,0-2.807,17.86,12.231,12.231,0,0,0,10.206,5.1l13.778,18.881a65.625,65.625,0,0,0-14.543,19.9l-32.148-10.461a12.616,12.616,0,0,0-8.165-7.91,12.78,12.78,0,0,0-9.7.765,12.238,12.238,0,0,0-6.379,7.4,12.779,12.779,0,0,0,.765,9.7,12.238,12.238,0,0,0,7.4,6.379,12.615,12.615,0,0,0,11.226-1.786l32.148,10.461-.765,4.593H-208.86a15.543,15.543,0,0,0-13.268-7.654,15.354,15.354,0,0,0-15.309,15.309,15.354,15.354,0,0,0,15.309,15.309,15.543,15.543,0,0,0,13.268-7.654h10.206l.765,4.593-22.453,7.144a12.615,12.615,0,0,0-11.226-1.786,12.776,12.776,0,0,0-8.165,16.074,12.776,12.776,0,0,0,16.074,8.165,13.217,13.217,0,0,0,8.165-7.91l22.2-7.144a65.623,65.623,0,0,0,14.543,19.9l-19.9,27.3a13.32,13.32,0,0,0-10.206,5.1,12.59,12.59,0,0,0-2.3,9.441,12.8,12.8,0,0,0,5.1,8.42,13.621,13.621,0,0,0,7.4,2.551,12.938,12.938,0,0,0,10.461-5.358,12.615,12.615,0,0,0,1.786-11.226l19.9-27.3a30.453,30.453,0,0,0,4.082,2.041l-3.062,9.7a15.518,15.518,0,0,0-11.482,10.206,15.57,15.57,0,0,0,9.951,19.391,14.853,14.853,0,0,0,4.848.766,13.241,13.241,0,0,0,6.889-1.786,15.587,15.587,0,0,0,7.654-8.93,15.321,15.321,0,0,0-3.062-15.054l3.062-9.7,4.593.765v23.474a12.93,12.93,0,0,0-5.1,10.206,12.633,12.633,0,0,0,12.757,12.757,12.633,12.633,0,0,0,12.757-12.757,13.32,13.32,0,0,0-5.1-10.206V521.685a63.565,63.565,0,0,0,23.473-7.654l19.9,27.3a12.615,12.615,0,0,0,1.786,11.226,12.235,12.235,0,0,0,8.42,5.1,12.59,12.59,0,0,0,9.44-2.3A12.941,12.941,0,0,0-61.9,537.5,12.231,12.231,0,0,0-72.1,532.4L-92,505.1l3.317-3.317,8.165,6.123A15.843,15.843,0,0,0-74.4,521.941a14.8,14.8,0,0,0,8.93,2.807,15.593,15.593,0,0,0,12.5-6.379,15.432,15.432,0,0,0-3.317-21.432,15,15,0,0,0-15.309-1.531l-8.165-6.123c.765-1.276,1.531-2.807,2.3-4.082l22.2,7.144a12.615,12.615,0,0,0,8.165,7.91,9.916,9.916,0,0,0,3.827.51,12.774,12.774,0,0,0,12.247-8.93,12.672,12.672,0,0,0-8.165-16.074,12.615,12.615,0,0,0-11.226,1.786L-72.867,470.4a66.526,66.526,0,0,0,1.276-12.247,66.525,66.525,0,0,0-1.276-12.247l32.148-10.461a12.615,12.615,0,0,0,11.226,1.786,12.238,12.238,0,0,0,7.4-6.379C-20.307,428.557-20.052,424.985-21.072,421.923Zm-5.358,7.4a9.007,9.007,0,0,1-4.337,3.827,7.8,7.8,0,0,1-7.4-1.531,2.967,2.967,0,0,0-2.551-.51L-76.184,442.59a2.771,2.771,0,0,0-1.786,3.062,59.4,59.4,0,0,1,1.531,13.523A61.065,61.065,0,0,1-77.97,472.7a2.771,2.771,0,0,0,1.786,3.062l25.77,8.42a3.142,3.142,0,0,0,2.551-.51,7.207,7.207,0,0,1,7.4-1.531,7.61,7.61,0,0,1,4.848,9.7,7.61,7.61,0,0,1-9.7,4.848,7.582,7.582,0,0,1-5.1-5.613,2.521,2.521,0,0,0-1.786-1.786l-25.77-8.42a2.376,2.376,0,0,0-3.062,1.531,51,51,0,0,1-2.551,5.358l-5.868-4.082a2.744,2.744,0,0,0-3.572.51,2.744,2.744,0,0,0,.51,3.572l8.165,5.868h0l11.482,8.165a2.794,2.794,0,0,0,2.807.255,10.5,10.5,0,0,1,11.226.51,10.216,10.216,0,0,1,2.3,14.288,10.215,10.215,0,0,1-14.288,2.3,10.274,10.274,0,0,1-4.082-10.461,2.426,2.426,0,0,0-1.021-2.551l-11.482-8.165h0l-8.165-5.868a2.744,2.744,0,0,0-3.572.51,2.744,2.744,0,0,0,.51,3.572l5.868,4.082a32.865,32.865,0,0,1-4.337,4.082,2.419,2.419,0,0,0-.51,3.317l21.943,30.107a2.77,2.77,0,0,0,2.3,1.021,7.181,7.181,0,0,1,6.889,3.062,7.535,7.535,0,0,1-1.786,10.716,6.3,6.3,0,0,1-5.613,1.276,8.214,8.214,0,0,1-5.1-3.062,8.174,8.174,0,0,1-.765-7.654,3.019,3.019,0,0,0-.255-2.552l-21.943-30.107a2.783,2.783,0,0,0-3.317-.765,56.735,56.735,0,0,1-25.515,8.165,2.517,2.517,0,0,0-2.3,2.551v27.046a2.679,2.679,0,0,0,1.276,2.3,7.614,7.614,0,0,1,3.827,6.634,7.518,7.518,0,0,1-7.654,7.654,7.518,7.518,0,0,1-7.654-7.654,7.936,7.936,0,0,1,3.827-6.634,2.68,2.68,0,0,0,1.276-2.3V520.41a2.517,2.517,0,0,0-2.3-2.551c-1.786-.255-3.827-.51-5.868-.765l2.3-6.889a2.654,2.654,0,0,0-1.531-3.317,2.654,2.654,0,0,0-3.317,1.531l-3.062,9.44h0l-4.337,13.268a2.88,2.88,0,0,0,.765,2.807,10.633,10.633,0,0,1,3.062,10.716,9.633,9.633,0,0,1-5.1,5.868,9.505,9.505,0,0,1-7.91.51,10.127,10.127,0,0,1-6.634-12.757,9.856,9.856,0,0,1,8.675-6.889,2.724,2.724,0,0,0,2.3-1.786l4.337-13.268h0l3.062-9.441a2.654,2.654,0,0,0-1.531-3.317A2.654,2.654,0,0,0-158.6,505.1l-2.3,6.889a32.687,32.687,0,0,1-5.1-2.807,2.269,2.269,0,0,0-3.317.765l-21.943,30.107a2.347,2.347,0,0,0-.255,2.551,8.173,8.173,0,0,1-.765,7.654,8.009,8.009,0,0,1-10.716,1.786,8.214,8.214,0,0,1-3.062-5.1,8.388,8.388,0,0,1,1.276-5.613,7.413,7.413,0,0,1,6.889-3.062,2.487,2.487,0,0,0,2.3-1.021l21.943-30.107a2.419,2.419,0,0,0-.51-3.317,60.312,60.312,0,0,1-15.819-21.688,2.6,2.6,0,0,0-3.062-1.531l-25.77,8.42a3.082,3.082,0,0,0-1.786,1.786,7.193,7.193,0,0,1-5.1,5.613,7.821,7.821,0,0,1-9.7-4.848,7.821,7.821,0,0,1,4.848-9.7,7.8,7.8,0,0,1,7.4,1.531,2.967,2.967,0,0,0,2.551.51l25.77-8.42a2.771,2.771,0,0,0,1.786-3.062,40.106,40.106,0,0,1-1.021-5.868h7.144a2.411,2.411,0,0,0,2.551-2.551,2.411,2.411,0,0,0-2.551-2.552H-210.9A2.231,2.231,0,0,0-213.2,463a10.039,10.039,0,0,1-9.44,6.124,10.236,10.236,0,0,1-10.206-10.206,10.236,10.236,0,0,1,10.206-10.206,10.3,10.3,0,0,1,9.44,6.124,2.452,2.452,0,0,0,2.3,1.531h23.984a2.411,2.411,0,0,0,2.551-2.551,2.41,2.41,0,0,0-2.551-2.551h-7.144a47.09,47.09,0,0,1,1.021-5.868,2.771,2.771,0,0,0-1.786-3.062l-34.7-11.482a3.142,3.142,0,0,0-2.551.51,7.208,7.208,0,0,1-7.4,1.531,6.531,6.531,0,0,1-4.337-3.827,9.185,9.185,0,0,1-.51-5.868,6.531,6.531,0,0,1,3.827-4.338,7.764,7.764,0,0,1,5.868-.51,7.582,7.582,0,0,1,5.1,5.613,2.521,2.521,0,0,0,1.786,1.786l35.465,11.482a2.376,2.376,0,0,0,3.062-1.531,60.313,60.313,0,0,1,15.819-21.688,2.419,2.419,0,0,0,.51-3.317l-16.074-21.943a2.487,2.487,0,0,0-2.3-1.021,7.181,7.181,0,0,1-6.889-3.062,7.535,7.535,0,0,1,1.786-10.716,7.535,7.535,0,0,1,10.716,1.786,8.173,8.173,0,0,1,.765,7.654,3.019,3.019,0,0,0,.255,2.551L-168.8,407.89a2.783,2.783,0,0,0,3.317.765,32.693,32.693,0,0,1,5.1-2.807l2.3,6.889c0,.255.255.51.51.765l.255.255c.255.255.255.255.51.255a.25.25,0,0,1,.255.255c.255,0,.255.255.51.255h1.021a2.553,2.553,0,0,0,1.531-3.317l-3.062-9.44h0l-4.337-13.268a2.825,2.825,0,0,0-2.3-1.786,10.232,10.232,0,0,1-8.675-6.889,10.024,10.024,0,0,1,6.634-12.757,10.023,10.023,0,0,1,12.757,6.634,10.006,10.006,0,0,1-3.062,10.716,2.879,2.879,0,0,0-.765,2.807l7.4,22.963a2.553,2.553,0,0,0,3.317,1.531,2.553,2.553,0,0,0,1.531-3.317l-2.3-6.889c2.041-.255,3.827-.51,5.868-.765a2.517,2.517,0,0,0,2.3-2.551V360.943a2.679,2.679,0,0,0-1.276-2.3,7.614,7.614,0,0,1-3.827-6.634,7.518,7.518,0,0,1,7.654-7.654,7.518,7.518,0,0,1,7.654,7.654,7.936,7.936,0,0,1-3.827,6.634,2.68,2.68,0,0,0-1.276,2.3v37.252a2.517,2.517,0,0,0,2.3,2.551,60.057,60.057,0,0,1,25.515,8.165,2.269,2.269,0,0,0,3.317-.765L-85.879,386.2a3.019,3.019,0,0,0,.255-2.552A8.173,8.173,0,0,1-84.859,376a8.009,8.009,0,0,1,10.716-1.786,8.009,8.009,0,0,1,1.786,10.716,7.413,7.413,0,0,1-6.889,3.062,2.487,2.487,0,0,0-2.3,1.021l-16.074,21.943a2.419,2.419,0,0,0,.51,3.317c1.531,1.276,2.807,2.551,4.337,4.082l-5.868,4.082a2.744,2.744,0,0,0-.51,3.572l.765.765h.255c.255,0,.51.255.765.255h.765c.255,0,.51-.255.765-.51l19.391-14.033a2.426,2.426,0,0,0,1.021-2.552,10.274,10.274,0,0,1,4.082-10.461,10.215,10.215,0,0,1,14.288,2.3,10.216,10.216,0,0,1-2.3,14.288,10.5,10.5,0,0,1-11.226.51,2.32,2.32,0,0,0-2.807.255l-19.391,14.033a2.7,2.7,0,0,0-.51,3.572l.765.765h.255c.255,0,.51.255.765.255h.766c.255,0,.51-.255.765-.51l5.868-4.082a51,51,0,0,1,2.551,5.358,2.6,2.6,0,0,0,3.062,1.531l35.465-11.482a3.082,3.082,0,0,0,1.786-1.786,7.193,7.193,0,0,1,5.1-5.613,7.821,7.821,0,0,1,9.7,4.848A5.529,5.529,0,0,1-26.43,429.322Z" transform="translate(250.04 -339)" fill="currentColor" />
      <path id="Path_7" data-name="Path 7" d="M-207.568,398.4c6.351,0,11.432-5.589,11.432-12.7s-5.081-12.7-11.432-12.7S-219,378.589-219,385.7-213.919,398.4-207.568,398.4Zm0-20.323c3.556,0,6.351,3.3,6.351,7.621s-2.794,7.621-6.351,7.621-6.351-3.3-6.351-7.621S-211.125,378.081-207.568,378.081Z" transform="translate(298.236 -286.202)" fill="currentColor" />
      <path id="Path_8" data-name="Path 8" d="M-206.028,389c-7.621,0-13.972,5.081-13.972,11.432s6.351,11.432,13.972,11.432,13.972-5.081,13.972-11.432S-198.407,389-206.028,389Zm0,17.782c-4.827,0-8.891-2.794-8.891-6.351s4.065-6.351,8.891-6.351,8.891,2.794,8.891,6.351S-201.2,406.782-206.028,406.782Z" transform="translate(296.692 -261.364)" fill="currentColor" />
      <path id="Path_9" data-name="Path 9" d="M-191.3,393c-7.113,0-12.7,6.351-12.7,13.972s5.589,13.972,12.7,13.972,12.7-6.351,12.7-13.972S-184.185,393-191.3,393Zm0,22.863c-4.319,0-7.621-4.065-7.621-8.891s3.3-8.891,7.621-8.891,7.621,4.065,7.621,8.891S-186.98,415.863-191.3,415.863Z" transform="translate(321.533 -255.136)" fill="currentColor" />
      <path id="Path_10" data-name="Path 10" d="M-186.758,381C-195.4,381-202,386.081-202,392.432s6.6,11.431,15.242,11.431,15.242-5.081,15.242-11.431S-178.121,381-186.758,381Zm0,17.782c-5.589,0-10.161-2.794-10.161-6.351s4.573-6.351,10.161-6.351,10.161,2.794,10.161,6.351S-181.169,398.782-186.758,398.782Z" transform="translate(324.654 -273.786)" fill="currentColor" />
      <path id="Path_11" data-name="Path 11" d="M-180.6,380.7A12.578,12.578,0,0,0-193.3,368,12.578,12.578,0,0,0-206,380.7a12.578,12.578,0,0,0,12.7,12.7A12.578,12.578,0,0,0-180.6,380.7Zm-20.323,0a7.485,7.485,0,0,1,7.621-7.621,7.485,7.485,0,0,1,7.621,7.621,7.485,7.485,0,0,1-7.621,7.621A7.485,7.485,0,0,1-200.919,380.7Z" transform="translate(318.427 -293.967)" fill="currentColor" />
    </g>
  </g>
</svg>